<?xml version="1.0" encoding="utf-8"?>
<!-- Generator: Adobe Illustrator 19.2.0, SVG Export Plug-In . SVG Version: 6.00 Build 0)  -->
<svg version="1.1" id="Layer_1" xmlns="http://www.w3.org/2000/svg" xmlns:xlink="http://www.w3.org/1999/xlink" x="0px" y="0px"
	 viewBox="0 0 256 256" style="enable-background:new 0 0 256 256;" xml:space="preserve">
<style type="text/css">
	.st0{fill:#EC3B6B;}
</style>
<path class="st0" d="M109.5,182c-1.5,0-2.9-0.5-4.1-1.5l-36.9-31.7c-2.6-2.2-2.9-6.2-0.7-8.8c2.2-2.6,6.2-2.9,8.8-0.7l32,27.4
	L178.5,77c2.1-2.7,6-3.2,8.8-1.1c2.7,2.1,3.2,6,1.1,8.8l-73.9,95c-1,1.3-2.6,2.2-4.3,2.4C109.9,182,109.7,182,109.5,182z M253,128
	C253,59.1,196.9,3,128,3S3,59.1,3,128s56.1,125,125,125S253,196.9,253,128z M240.5,128c0,62-50.5,112.5-112.5,112.5
	C66,240.5,15.5,190,15.5,128C15.5,66,66,15.5,128,15.5C190,15.5,240.5,66,240.5,128z"/>
</svg>
