<?xml version="1.0" encoding="utf-8"?>
<!-- Generator: Adobe Illustrator 19.2.0, SVG Export Plug-In . SVG Version: 6.00 Build 0)  -->
<svg version="1.1" id="Layer_1" xmlns="http://www.w3.org/2000/svg" xmlns:xlink="http://www.w3.org/1999/xlink" x="0px" y="0px"
	 viewBox="0 0 1000 1000" style="enable-background:new 0 0 1000 1000;" xml:space="preserve">
<style type="text/css">
	.st0{fill:#FFFFFF;stroke:#BCBCBC;stroke-width:2;stroke-miterlimit:10;}
	.st1{fill:url(#SVGID_1_);}
</style>
<path class="st0" d="M788.6,939.3H211.4c-82.8,0-150-67.2-150-150V212.1c0-82.8,67.2-150,150-150h577.1c82.8,0,150,67.2,150,150
	v577.1C938.6,872.1,871.4,939.3,788.6,939.3z"/>
<g>
	<linearGradient id="SVGID_1_" gradientUnits="userSpaceOnUse" x1="315.8714" y1="615.5646" x2="684.2325" y2="247.2035">
		<stop  offset="0" style="stop-color:#F05B8B"/>
		<stop  offset="1" style="stop-color:#EE3968"/>
	</linearGradient>
	<path class="st1" d="M632.2,259.7c-43,0-83.1,17.2-112.8,48.4c-1.4,1.4-2.1,3.4-2.1,5.4v149.4c0,3.2,2,6.2,5.1,7.3
		c25,9.3,41.9,33.5,41.9,60.2c0,35.4-28.8,64.2-64.2,64.2s-64.2-28.8-64.2-64.2c0-26.6,16.7-50.7,41.5-60.1c3-1.1,5-4,5-7.3V313
		c0-2-0.8-3.9-2.2-5.4c-29.7-30.9-69.6-48-112.4-48c0,0,0,0,0,0c-41.7,0-80.9,16.2-110.3,45.7c-29.5,29.5-45.7,68.6-45.7,110.3
		c0,37.2,13.6,77.6,40.6,120.2c22.1,34.9,52.4,70.5,90.2,105.8c64.1,59.8,137.2,106.3,157.4,106.3c20.2,0,93.4-46.3,157.4-106
		c37.8-35.3,68.2-70.9,90.2-105.8c26.9-42.6,40.6-83.2,40.6-120.5C788.2,329.7,718.2,259.7,632.2,259.7z"/>
</g>
</svg>
