<?xml version="1.0" encoding="utf-8"?>
<!-- Generator: Adobe Illustrator 19.2.0, SVG Export Plug-In . SVG Version: 6.00 Build 0)  -->
<svg version="1.1" id="Layer_1" xmlns="http://www.w3.org/2000/svg" xmlns:xlink="http://www.w3.org/1999/xlink" x="0px" y="0px"
	 viewBox="0 0 1029.7 288" style="enable-background:new 0 0 1029.7 288;" xml:space="preserve">
<g>
	<path d="M175,171.4c0,15.9-4.1,27.6-12.3,34.6c-8.4,7.2-21.7,10.9-39.4,10.9c-17.8,0-31.1-3.6-39.6-10.8
		c-8.2-7-12.4-18.7-12.4-34.7V56.8H43.4v114.5c0,12,1.8,22.6,5.4,31.4c3.6,9,9,16.5,16.1,22.2c6.9,5.7,15.5,9.9,25.4,12.6
		c9.7,2.6,20.8,3.9,33.1,3.9c12.1,0,23.1-1.3,32.8-3.9c9.9-2.7,18.5-6.9,25.4-12.6c7-5.8,12.4-13.2,16.1-22.2
		c3.6-8.8,5.4-19.4,5.4-31.4V56.8H175V171.4z"/>
	<path d="M388.3,208.6c-5.8,2.6-12.2,4.7-19,6.2c-6.8,1.5-14.5,2.3-22.7,2.3c-11.2,0-20.9-1.2-29-3.6c-7.7-2.3-14.1-6.1-19.1-11.3
		c-5.1-5.3-9-12.6-11.5-21.5c-2.7-9.3-4-21-4-35c0-13,1.3-24.1,3.9-32.8c2.5-8.4,6.2-15.2,11.2-20.2c4.9-5,11.3-8.6,19-10.8
		c8.1-2.3,17.8-3.5,28.8-3.5c8.1,0,15.9,0.7,23.2,2.2c7.3,1.5,13.8,3.2,19.1,5.3l5.7,2.2l4.2-23.9l-3.8-1.5c-2.9-1.1-6.2-2.2-10-3.3
		c-3.7-1-7.8-1.9-12.2-2.7c-4.3-0.8-8.8-1.4-13.3-1.9c-4.6-0.5-9.1-0.7-13.6-0.7c-15.2,0-28.6,1.8-39.7,5.3
		c-11.5,3.6-21.1,9.3-28.7,16.9c-7.6,7.6-13.2,17.4-16.8,29c-3.5,11.3-5.2,24.9-5.2,40.5c0,16.3,1.8,30.5,5.2,42.2
		c3.5,12.1,9.1,22.2,16.5,30.2c7.5,8.1,17.1,14.1,28.5,17.8c11.1,3.7,24.4,5.5,39.7,5.5c9.5,0,18.9-1.1,27.9-3.2
		c8.9-2.1,16.7-4.6,23-7.5l3.7-1.7l-5.2-23L388.3,208.6z"/>
	<path d="M511.7,56.8l-81.5,181.5h30.2l19.2-45.3h90.9l19.2,45.3h31L539.2,56.8H511.7z M560.6,169.8h-70.8l33-77l2.8-6.9l2.6,6.7
		L560.6,169.8z"/>
	<path d="M784.6,143.9c8.3-8.3,12.5-20.3,12.5-35.7c0-17.2-5.5-30.3-16.2-38.9c-10.6-8.4-26.3-12.5-48.3-12.5H662v181.5h27.8v-77.1
		h39.4l51.9,77.1h33.9l-57.4-81.1C769,155,778,150.5,784.6,143.9z M689.9,80.1h42.8c13,0,22.5,2.3,28.1,6.7c5.3,4.2,8,11.6,8,22
		c0,10.9-2.8,18.6-8.4,23c-5.9,4.7-15.8,7.1-29.3,7.1h-41.2V80.1z"/>
	<polygon points="883.4,214.2 883.4,154.9 972.3,154.9 972.3,132.1 883.4,132.1 883.4,81 986.4,81 985,56.8 855.6,56.8 855.6,238.3 
		989.9,238.3 991.3,214.2 	"/>
</g>
</svg>
