<?xml version="1.0" encoding="utf-8"?>
<!-- Generator: Adobe Illustrator 19.2.0, SVG Export Plug-In . SVG Version: 6.00 Build 0)  -->
<svg version="1.1" id="Layer_1" xmlns="http://www.w3.org/2000/svg" xmlns:xlink="http://www.w3.org/1999/xlink" x="0px" y="0px"
	 viewBox="0 0 300 300" style="enable-background:new 0 0 300 300;" xml:space="preserve">
<style type="text/css">
	.st0{fill:url(#SVGID_1_);}
	.st1{fill:#FFFFFF;}
	.st2{fill:#EC3B6B;}
</style>
<linearGradient id="SVGID_1_" gradientUnits="userSpaceOnUse" x1="55.6448" y1="239.3592" x2="250.3069" y2="44.6971">
	<stop  offset="0" style="stop-color:#ED5D8C"/>
	<stop  offset="1" style="stop-color:#EC3B6B"/>
</linearGradient>
<path class="st0" d="M290.6,142C290.6,66,229,4.4,153,4.4S15.3,66,15.3,142c0,69.3,51.2,126.6,117.8,136.2l14,14
	c3.1,3.1,8.2,3.1,11.3,0l13.9-13.9C239.2,268.9,290.6,211.5,290.6,142z"/>
<g>
	<path class="st1" d="M197.6,68.5c-14.5,0-28.1,5.8-38.1,16.4c-0.5,0.5-0.7,1.1-0.7,1.8v50.5c0,1.1,0.7,2.1,1.7,2.5
		c8.5,3.1,14.2,11.3,14.2,20.3c0,12-9.7,21.7-21.7,21.7c-12,0-21.7-9.7-21.7-21.7c0-9,5.6-17.1,14-20.3c1-0.4,1.7-1.4,1.7-2.5V86.5
		c0-0.7-0.3-1.3-0.7-1.8c-10-10.5-23.5-16.2-38-16.2c0,0,0,0,0,0C94.2,68.5,81,74,71,83.9c-10,10-15.4,23.2-15.4,37.3
		c0,12.6,4.6,26.2,13.7,40.6c7.5,11.8,17.7,23.8,30.5,35.8c21.7,20.2,46.4,35.9,53.2,35.9c6.8,0,31.6-15.6,53.2-35.8
		c12.8-11.9,23-23.9,30.5-35.7c9.1-14.4,13.7-28.1,13.7-40.7C250.4,92.1,226.7,68.5,197.6,68.5z"/>
</g>
<circle class="st2" cx="-318.5" cy="103" r="137.6"/>
<path class="st2" d="M-298.8,238.9l-14.3,14.3c-3.1,3.1-8.2,3.1-11.3,0l-15.4-15.4l19.9-19.9L-298.8,238.9z"/>
</svg>
