<?xml version="1.0" encoding="utf-8"?>
<!-- Generator: Adobe Illustrator 19.2.0, SVG Export Plug-In . SVG Version: 6.00 Build 0)  -->
<svg version="1.1" id="Layer_1" xmlns="http://www.w3.org/2000/svg" xmlns:xlink="http://www.w3.org/1999/xlink" x="0px" y="0px"
	 viewBox="0 0 306 54.5" style="enable-background:new 0 0 306 54.5;" xml:space="preserve">
<style type="text/css">
	.st0{fill:#EC3B6B;}
	.st1{opacity:0.25;fill:#EC3C6C;}
</style>
<path class="st0" d="M53.9,21.7c0.7,2.1-1.6,3.4-1.6,3.4l-11.4,8.3l4.4,13.4c0,0,1.1,2.4-0.7,3.7c-1.8,1.3-3.7-0.5-3.7-0.5
	l-11.4-8.3L18.1,50c0,0-2,1.8-3.7,0.5c-1.8-1.3-0.7-3.7-0.7-3.7L18,33.4L6.6,25.1c0,0-2.3-1.3-1.6-3.4c0.7-2.1,3.3-1.8,3.3-1.8h14.1
	l4.3-13.4c0,0,0.6-2.5,2.7-2.5s2.7,2.5,2.7,2.5l4.3,13.4h14.1C50.6,19.9,53.2,19.6,53.9,21.7L53.9,21.7z"/>
<path class="st0" d="M116.8,21.7c0.7,2.1-1.6,3.4-1.6,3.4l-11.4,8.3l4.4,13.4c0,0,1.1,2.4-0.7,3.7c-1.8,1.3-3.7-0.5-3.7-0.5
	l-11.4-8.3L81,50c0,0-2,1.8-3.7,0.5c-1.8-1.3-0.7-3.7-0.7-3.7L81,33.4l-11.4-8.3c0,0-2.3-1.3-1.6-3.4c0.7-2.1,3.3-1.8,3.3-1.8h14.1
	l4.3-13.4c0,0,0.6-2.5,2.7-2.5c2.1,0,2.7,2.5,2.7,2.5l4.3,13.4h14.1C113.5,19.9,116.1,19.6,116.8,21.7L116.8,21.7z"/>
<path class="st0" d="M178.7,21.7c0.7,2.1-1.6,3.4-1.6,3.4l-11.4,8.3l4.4,13.4c0,0,1.1,2.4-0.7,3.7c-1.8,1.3-3.7-0.5-3.7-0.5
	l-11.4-8.3L142.9,50c0,0-2,1.8-3.7,0.5c-1.8-1.3-0.7-3.7-0.7-3.7l4.4-13.4l-11.4-8.3c0,0-2.3-1.3-1.6-3.4c0.7-2.1,3.3-1.8,3.3-1.8
	h14.1l4.3-13.4c0,0,0.6-2.5,2.7-2.5s2.7,2.5,2.7,2.5l4.3,13.4h14.1C175.4,19.9,178,19.6,178.7,21.7L178.7,21.7z"/>
<path class="st1" d="M240.2,21.7c0.7,2.1-1.6,3.4-1.6,3.4l-11.4,8.3l4.4,13.4c0,0,1.1,2.4-0.7,3.7c-1.8,1.3-3.7-0.5-3.7-0.5
	l-11.4-8.3L204.4,50c0,0-2,1.8-3.7,0.5c-1.8-1.3-0.7-3.7-0.7-3.7l4.4-13.4l-11.4-8.3c0,0-2.3-1.3-1.6-3.4c0.7-2.1,3.3-1.8,3.3-1.8
	h14.1L213,6.5c0,0,0.6-2.5,2.7-2.5s2.7,2.5,2.7,2.5l4.3,13.4h14.1C236.9,19.9,239.5,19.6,240.2,21.7L240.2,21.7z"/>
<path class="st1" d="M301.7,21.7c0.7,2.1-1.6,3.4-1.6,3.4l-11.4,8.3l4.4,13.4c0,0,1.1,2.4-0.7,3.7c-1.8,1.3-3.7-0.5-3.7-0.5
	l-11.4-8.3L265.9,50c0,0-2,1.8-3.7,0.5c-1.8-1.3-0.7-3.7-0.7-3.7l4.4-13.4l-11.4-8.3c0,0-2.3-1.3-1.6-3.4c0.7-2.1,3.3-1.8,3.3-1.8
	h14.1l4.3-13.4c0,0,0.6-2.5,2.7-2.5s2.7,2.5,2.7,2.5l4.3,13.4h14.1C298.4,19.9,301,19.6,301.7,21.7L301.7,21.7z"/>
</svg>
