<?xml version="1.0" encoding="utf-8"?>
<!-- Generator: Adobe Illustrator 19.2.0, SVG Export Plug-In . SVG Version: 6.00 Build 0)  -->
<svg version="1.1" id="Layer_1" xmlns="http://www.w3.org/2000/svg" xmlns:xlink="http://www.w3.org/1999/xlink" x="0px" y="0px"
	 viewBox="0 0 48 48" style="enable-background:new 0 0 48 48;" xml:space="preserve">
<style type="text/css">
	.st0{fill:#EC3B6B;}
</style>
<g id="Expanded">
	<g>
		<g>
			<path class="st0" d="M7.8,28.9c-0.3,0-0.6-0.1-0.8-0.3L0.5,21c-0.4-0.4-0.3-1,0.1-1.4c0.4-0.4,1-0.3,1.4,0.1l5.7,6.5l4.7-7.3
				c0.3-0.5,0.9-0.6,1.4-0.3c0.5,0.3,0.6,0.9,0.3,1.4l-5.4,8.4C8.4,28.7,8.2,28.9,7.8,28.9C7.8,28.9,7.8,28.9,7.8,28.9z"/>
		</g>
		<g>
			<path class="st0" d="M46.8,31.4c-0.3,0-0.6-0.2-0.8-0.4l-4.8-7.2l-5.6,6.7c-0.4,0.4-1,0.5-1.4,0.1s-0.5-1-0.1-1.4l6.4-7.7
				c0.2-0.2,0.5-0.4,0.8-0.4c0.3,0,0.6,0.2,0.8,0.4l5.6,8.3c0.3,0.5,0.2,1.1-0.3,1.4C47.2,31.3,47,31.4,46.8,31.4z"/>
		</g>
		<g>
			<path class="st0" d="M24.3,42c-4.7,0-9.2-1.8-12.6-5.2c-0.4-0.4-0.4-1,0-1.4s1-0.4,1.4,0c4,3.9,9.5,5.5,14.9,4.2
				c7.9-1.9,13.1-9.3,12.2-17.4c-0.1-0.5,0.3-1,0.9-1.1c0.6-0.1,1,0.3,1.1,0.9c1,9-4.9,17.4-13.7,19.5C27.1,41.8,25.7,42,24.3,42z"
				/>
		</g>
		<g>
			<path class="st0" d="M7.8,28.9c-0.5,0-0.9-0.3-1-0.8C5.7,23.5,6.5,18.6,9,14.5c2.5-4.1,6.5-7,11.2-8.1c6.5-1.5,13.2,0.6,17.6,5.6
				c0.4,0.4,0.3,1-0.1,1.4c-0.4,0.4-1,0.3-1.4-0.1c-3.9-4.4-9.9-6.3-15.7-5c-4.2,1-7.7,3.5-9.9,7.2s-2.9,7.9-2,12.1
				c0.1,0.5-0.2,1.1-0.7,1.2C7.9,28.9,7.8,28.9,7.8,28.9z"/>
		</g>
	</g>
</g>
</svg>
